<svg width="800" height="400" viewBox="0 0 800 400" xmlns="http://www.w3.org/2000/svg">
  <path d="M135,40 C145,35 155,35 165,40 L145,45 Z" fill="#e5e7eb" />
  <path d="M175,40 C195,35 210,35 220,45 L200,50 Z" fill="#e5e7eb" />
  <path d="M170,60 C180,55 190,55 200,60 L190,65 Z" fill="#e5e7eb" />
  <path d="M115,60 C125,55 135,55 145,60 L135,65 Z" fill="#e5e7eb" />
  <path d="M125,90 C135,85 145,85 155,90 L145,95 Z" fill="#e5e7eb" />
  <path d="M165,110 C175,105 185,105 195,110 L185,115 Z" fill="#e5e7eb" />
  <path d="M125,130 C135,125 145,125 155,130 L145,135 Z" fill="#e5e7eb" />
  <path d="M155,150 C165,145 175,145 185,150 L175,155 Z" fill="#e5e7eb" />
  <path d="M195,150 C205,145 215,145 225,150 L215,155 Z" fill="#e5e7eb" />
  <path d="M290,70 C310,65 330,65 340,75 C345,85 350,95 335,105 C320,110 310,105 300,95 C290,90 285,80 290,70 Z" fill="#e5e7eb" />
  <path d="M395,60 C405,55 415,55 425,60 L415,65 Z" fill="#e5e7eb" />
  <path d="M415,80 C425,75 435,75 445,80 L435,85 Z" fill="#e5e7eb" />
  <path d="M405,110 C415,105 425,105 435,110 L425,115 Z" fill="#e5e7eb" />
  <path d="M375,130 C395,125 405,125 415,130 L390,135 Z" fill="#e5e7eb" />
  <path d="M355,150 C365,145 375,145 385,150 L375,155 Z" fill="#e5e7eb" />
  <path d="M385,170 C395,165 405,165 415,170 L405,175 Z" fill="#e5e7eb" />
  <path d="M345,190 C355,185 365,185 375,190 L365,195 Z" fill="#e5e7eb" />
  <path d="M375,190 C385,185 395,185 405,190 L395,195 Z" fill="#e5e7eb" />
  <path d="M455,130 C465,125 475,125 485,130 L475,135 Z" fill="#e5e7eb" />
  <path d="M475,150 C485,145 495,145 505,150 L495,155 Z" fill="#e5e7eb" />
  <path d="M495,170 C505,165 515,165 525,170 L515,175 Z" fill="#e5e7eb" />
  <path d="M515,190 C525,185 535,185 545,190 L535,195 Z" fill="#e5e7eb" />
  <path d="M540,80 C560,75 580,80 590,95 C595,110 590,125 575,130 C560,130 545,120 540,105 C535,95 535,85 540,80 Z" fill="#e5e7eb" />
  <path d="M570,150 C580,145 590,145 600,150 L590,155 Z" fill="#e5e7eb" />
  <path d="M600,130 C610,125 620,125 630,130 L620,135 Z" fill="#e5e7eb" />
  <path d="M630,150 C640,145 650,145 660,150 L650,155 Z" fill="#e5e7eb" />
  <path d="M680,170 C690,165 700,165 710,170 L700,175 Z" fill="#e5e7eb" />
  <path d="M700,190 C710,185 720,185 730,190 L720,195 Z" fill="#e5e7eb" />
  <!-- Australia shape -->
  <path d="M650,250 C670,245 690,250 700,260 C710,270 710,285 700,295 C685,300 670,295 660,285 C650,275 645,260 650,250 Z" fill="#e5e7eb" />
  <!-- Simple Africa shape -->
  <path d="M360,130 C380,120 405,125 420,140 C430,160 435,180 425,200 C410,215 390,220 370,210 C350,195 345,175 350,155 C350,145 355,135 360,130 Z" fill="#e5e7eb" />
  <!-- Simple South America shape -->
  <path d="M210,180 C225,175 240,180 250,190 C260,205 265,220 260,235 C250,250 235,255 220,250 C205,240 200,225 205,210 C205,200 210,185 210,180 Z" fill="#e5e7eb" />
</svg> 